<?xml version="1.0" encoding="utf-8"?>
<!-- Generator: Adobe Illustrator 27.3.1, SVG Export Plug-In . SVG Version: 6.00 Build 0)  -->
<svg version="1.1" id="Layer_1" xmlns="http://www.w3.org/2000/svg" xmlns:xlink="http://www.w3.org/1999/xlink" x="0px" y="0px"
	 viewBox="0 0 100 100" style="enable-background:new 0 0 100 100;" xml:space="preserve">
<style type="text/css">
	.st0{fill:none;}
	.st1{fill:#FFFFFF;}
</style>
<path class="st0" d="M47.23,58.87h5.54c13.07,0,23.67,10.6,23.67,23.67v1.34C86.51,76,93,63.75,93,50C93,26.29,73.71,7,50,7
	C26.29,7,7,26.29,7,50c0,13.75,6.49,26,16.56,33.87v-1.34C23.56,69.46,34.16,58.87,47.23,58.87z"/>
<g>
	<path class="st1" d="M50,0C22.39,0,0,22.39,0,50c0,17.9,9.42,33.6,23.56,42.43C31.23,97.22,40.29,100,50,100s18.77-2.78,26.44-7.57
		C90.58,83.6,100,67.9,100,50C100,22.39,77.61,0,50,0z M76.44,83.87v-1.34c0-13.07-10.6-23.67-23.67-23.67h-5.54
		c-13.07,0-23.67,10.6-23.67,23.67v1.34C13.49,76,7,63.75,7,50C7,26.29,26.29,7,50,7c23.71,0,43,19.29,43,43
		C93,63.75,86.51,76,76.44,83.87z"/>
	<circle class="st1" cx="50" cy="34.33" r="19.53"/>
</g>
<g>
	<path d="M197.2,7c23.71,0,43,19.29,43,43s-19.29,43-43,43s-43-19.29-43-43S173.49,7,197.2,7 M197.2,0c-27.61,0-50,22.39-50,50
		s22.39,50,50,50s50-22.39,50-50S224.81,0,197.2,0L197.2,0z"/>
</g>
<g>
	<path d="M199.97,58.87h-5.54c-13.07,0-23.67,10.6-23.67,23.67V100h52.88V82.53C223.64,69.46,213.04,58.87,199.97,58.87z"/>
</g>
<circle cx="197.2" cy="32.47" r="19.53"/>
</svg>
