<?xml version="1.0" encoding="utf-8"?>
<!-- Generator: Adobe Illustrator 27.3.1, SVG Export Plug-In . SVG Version: 6.00 Build 0)  -->
<svg version="1.1" id="Layer_1" xmlns="http://www.w3.org/2000/svg" xmlns:xlink="http://www.w3.org/1999/xlink" x="0px" y="0px"
	 viewBox="0 0 100 100" style="enable-background:new 0 0 100 100;" xml:space="preserve">
<style type="text/css">
	.st0{fill:#FDBC5F;}
	.st1{fill:#58595B;}
	
		.st2{clip-path:url(#SVGID_00000145757639530682765520000012503587926822991744_);fill:url(#SVGID_00000168079508022660036510000011109703625314327960_);}
	
		.st3{clip-path:url(#SVGID_00000134234158543213711130000001790445904630391692_);fill:url(#SVGID_00000116958394051049873920000018315773654173039524_);}
	.st4{fill:#EE2A7B;}
	.st5{fill:#A87F3F;}
	.st6{fill:#A9ABAE;}
	.st7{fill:none;stroke:#A9ABAE;stroke-width:1.3716;stroke-miterlimit:10;}
	.st8{fill:none;stroke:#A9ABAE;stroke-width:0.9144;stroke-miterlimit:10;}
	.st9{fill:#4E7491;}
</style>
<g>
	<path class="st0" d="M11.23,59.9c0.75-0.29,1.54-0.62,2.1-1.14c0.09-0.09,0.15-0.17,0.16-0.22c-0.31-3.35-2.3-6.12-5.52-6.41
		c-0.45,0.29-1.15,0.55-1.79,0.65c-0.59,0.1-1.27,0.08-1.78-0.03c-1.81,0.91-2.86,2.74-3.04,4.97c-0.08,0.89-0.03,1.84,0.21,2.69
		c0.01,0.07,0.01,0.07,0.08,0.15c0.25,0.21,0.6,0.31,0.96,0.39c0.53,0.12,1.12,0.16,1.7,0.17C6.64,61.12,9.04,60.7,11.23,59.9"/>
	<path class="st1" d="M27.1,72.06c-0.62-0.11-1.07-0.04-1.39,0.22c-0.42,0.35-0.63,1.08-0.63,2.17l0.58,7.71
		c0.99,0.45,2.16,0.83,3.61,1.17l-0.15-7.89C29.12,73.98,28.49,72.31,27.1,72.06"/>
	<path class="st0" d="M53.43,59.61c-0.24-0.08-0.48-0.15-0.73-0.21c-0.69,0.3-1.69,0.49-2.59,0.49c-0.9,0-1.9-0.19-2.59-0.49
		c-0.24,0.06-0.49,0.13-0.73,0.21c-3.57,1.07-5.7,4.57-5.72,8.19c-0.01,0.36,0.04,0.67,0.07,0.98c0.05,0.13,0.2,0.28,0.37,0.4
		c2.11,1.36,6.1,1.56,8.59,1.56c2.49,0,6.49-0.2,8.59-1.56c0.17-0.12,0.32-0.27,0.37-0.4c0.03-0.31,0.08-0.62,0.07-0.98
		C59.13,64.18,57,60.68,53.43,59.61"/>
	<path class="st0" d="M42.36,14.02c0.35,0.22,0.78,0.34,1.21,0.43c0.83-0.76,1.52-2.01,1.91-2.98c0.09,1.02,0.43,2.45,1.22,3.38
		c0.58,0.05,1.16,0.09,1.75,0.12c0.99-0.82,1.52-2.34,1.72-3.41c0.33,1.11,0.99,2.6,1.88,3.4c0.49-0.03,0.98-0.06,1.47-0.1
		c0.79-0.93,1.14-2.36,1.22-3.38c0.39,0.96,1.07,2.22,1.91,2.98c0.44-0.09,0.86-0.21,1.21-0.43l0.01-0.04
		c0.68-3.75-1.37-7.73-4.96-9.15c-0.88-0.36-1.84-0.54-2.79-0.55c-0.96,0.01-1.91,0.19-2.79,0.55c-3.59,1.42-5.65,5.39-4.96,9.15
		L42.36,14.02z"/>
	<path d="M57.85,14.08l0-0.02l0-0.02c0,0,0,0.01,0,0.01C57.85,14.06,57.85,14.08,57.85,14.08C57.85,14.09,57.85,14.09,57.85,14.08"
		/>
	<path d="M42.37,14.06l0,0.02c0,0.01,0,0.02,0,0.01C42.37,14.08,42.37,14.07,42.37,14.06c0-0.01,0-0.01,0-0.02L42.37,14.06z"/>
	<g>
		<defs>
			<path id="SVGID_1_" d="M56.07,15.94c-1.97,0.45-3.97,0.64-5.96,0.64s-3.99-0.19-5.96-0.64c-0.84-0.23-2.43-0.55-2.83-1.46
				c-0.27,0.01-0.54,0.03-0.81,0.05c-5.41,0.58-10.19,3.73-14.08,7.37c-8.37,8.02-13.32,19.59-13,31.19c0,0.47,0.03,0.95,0.07,1.42
				c0.78,1.15,1.28,2.51,1.45,3.85c0.02,0.24-0.01,0.46-0.07,0.67c0.34,0.32,0.69,0.63,1.06,0.91c0.91-0.47,1.89-1.59,2.55-2.57
				c-0.2,1.25-0.2,3.11,0.61,4.42c0.41,0.19,0.82,0.38,1.23,0.55c0.84,0.33,1.68,0.64,2.53,0.93c1.09-0.89,2.04-2.33,2.61-3.45
				c0,1.36,0.3,3.32,1.28,4.59c1.6,0.4,3.22,0.73,4.84,1c1.19-1.06,2.04-2.9,2.49-4.38c0.28,1.69,0.96,3.85,2.13,4.99
				c1.11,0.11,2.23,0.2,3.34,0.27c0.39-2,1.36-3.92,2.76-5.34c1.51-1.55,3.53-2.37,5.63-2.66c1.01-1.18,1.76-2.93,2.16-4.28
				c0.4,1.34,1.15,3.1,2.16,4.28c2.1,0.29,4.11,1.11,5.63,2.66c1.4,1.42,2.38,3.34,2.76,5.34c1.11-0.07,2.23-0.16,3.34-0.27
				c1.17-1.14,1.85-3.29,2.13-4.99c0.45,1.48,1.3,3.32,2.49,4.38c1.63-0.27,3.25-0.6,4.84-1c0.99-1.27,1.29-3.23,1.28-4.59
				c0.57,1.13,1.53,2.57,2.61,3.45c0.85-0.29,1.7-0.59,2.53-0.93c0.41-0.18,0.82-0.36,1.23-0.55c0.81-1.31,0.81-3.17,0.61-4.42
				c0.66,0.98,1.64,2.1,2.55,2.57c0.37-0.28,0.73-0.58,1.07-0.91c-0.07-0.21-0.1-0.44-0.07-0.67c0.16-1.35,0.66-2.7,1.45-3.85
				c0.04-0.47,0.07-0.94,0.07-1.42c0.32-11.6-4.63-23.17-13-31.19c-3.9-3.64-8.67-6.79-14.08-7.37c-0.27-0.02-0.54-0.05-0.81-0.05
				C58.5,15.39,56.91,15.71,56.07,15.94"/>
		</defs>
		<clipPath id="SVGID_00000126283628449174462910000006090629876532400009_">
			<use xlink:href="#SVGID_1_"  style="overflow:visible;"/>
		</clipPath>
		
			<linearGradient id="SVGID_00000164502036357676948180000013580795255481429929_" gradientUnits="userSpaceOnUse" x1="-918.3625" y1="-493.4688" x2="-917.9731" y2="-493.4688" gradientTransform="matrix(0 -133.0493 -133.0493 0 -65605.5469 -122121.1641)">
			<stop  offset="0" style="stop-color:#5D89AA"/>
			<stop  offset="0.8979" style="stop-color:#77AED7"/>
			<stop  offset="1" style="stop-color:#77AED7"/>
		</linearGradient>
		
			<rect x="13.11" y="14.48" style="clip-path:url(#SVGID_00000126283628449174462910000006090629876532400009_);fill:url(#SVGID_00000164502036357676948180000013580795255481429929_);" width="74" height="51.8"/>
	</g>
	<path class="st0" d="M95.8,52.74c-0.51,0.12-1.21,0.13-1.81,0.03c-0.64-0.1-1.33-0.36-1.78-0.65c-3.19,0.32-5.17,3.07-5.47,6.41
		c0.02,0.05,0.07,0.13,0.16,0.22c0.56,0.53,1.34,0.85,2.1,1.14c2.2,0.8,4.59,1.22,6.92,1.21c0.58-0.01,1.16-0.05,1.7-0.17
		c0.36-0.08,0.71-0.18,0.96-0.39c0.07-0.07,0.07-0.08,0.08-0.15c0.24-0.85,0.29-1.8,0.21-2.69C98.68,55.49,97.62,53.65,95.8,52.74"
		/>
	<path class="st1" d="M73.64,72.01c-0.16,0-0.33,0.02-0.52,0.05c-1.38,0.25-2.01,1.92-2.01,3.37l-0.15,7.9
		c1.46-0.34,2.62-0.72,3.61-1.17l0.58-7.71c0-1.09-0.22-1.82-0.63-2.17C74.29,72.1,74,72.01,73.64,72.01"/>
	<g>
		<defs>
			<path id="SVGID_00000174581154575320006260000000918067384206786492_" d="M53.41,72.84c-0.93,0.11-2.08,0.14-3.3,0.14
				c-1.22,0-2.37-0.03-3.3-0.14c-1.32-0.16-3.26-0.5-4.82-1.19c0.91,6.23,2.65,18.24,3.42,23.51l0.04,0.25
				c0.01,0.05,0.01,0.06,0.02,0.08l0.02,0.06c0.03,0.09,0.08,0.21,0.13,0.29c0.89,1.41,2.89,1.82,4.49,1.8
				c1.6,0.01,3.6-0.39,4.49-1.8c0.05-0.09,0.1-0.2,0.13-0.29l0.02-0.06c0.01-0.02,0.02-0.03,0.02-0.08l0.04-0.25
				c0.77-5.27,2.51-17.28,3.42-23.51C56.67,72.34,54.73,72.69,53.41,72.84 M29.64,84.34c-1.91-0.42-3.38-0.89-4.6-1.48l-0.24-0.11
				l-0.62-8.28c0-1.4,0.31-2.34,0.96-2.88c0.52-0.44,1.24-0.58,2.13-0.41c1.9,0.35,2.75,2.39,2.75,4.26l0.18,9.03L29.64,84.34z
				 M16.58,81.79c0,0.03,0,0.05,0,0.08c0.76,1.19,1.83,2.19,2.96,3.03c6.41,4.61,15.81,6.33,23.83,6.97
				c-0.68-5.89-1.83-15.94-2.39-20.74c-0.76-0.48-1.33-1.09-1.51-1.84c-8.75-1.14-19.5-3.56-24.96-8.28
				C15.13,67.11,15.99,75.95,16.58,81.79 M70.2,75.42c0-1.86,0.85-3.9,2.75-4.25c0.89-0.16,1.6-0.02,2.13,0.41
				c0.65,0.54,0.96,1.48,0.96,2.88l0,0.03l-0.62,8.25l-0.24,0.11c-1.23,0.59-2.69,1.06-4.6,1.48l-0.56,0.12L70.2,75.42z
				 M60.75,69.28c-0.19,0.75-0.75,1.36-1.51,1.84c-0.55,4.8-1.71,14.85-2.39,20.74c8.01-0.64,17.41-2.37,23.83-6.97
				c1.13-0.84,2.2-1.84,2.96-3.03c0-0.03,0-0.05,0-0.08c0.59-5.84,1.44-14.68,2.07-20.78C80.25,65.72,69.51,68.15,60.75,69.28
				 M8.06,62.27c-1.53,0.19-3.47,0.35-5.14,0.01c1.76,5.99,4.37,14.93,5.83,20.09c0.85,1.72,3.87,1.33,5.28,0.59
				c0.35-0.19,0.62-0.39,0.82-0.67c0.07-0.11,0.11-0.22,0.11-0.35c-0.41-6.02-1.04-15.3-1.44-21.42
				C11.89,61.56,9.26,62.11,8.06,62.27 M85.25,81.94c0,0.13,0.05,0.24,0.11,0.35c0.2,0.28,0.47,0.48,0.82,0.67
				c1.41,0.75,4.44,1.13,5.28-0.59c1.47-5.16,4.07-14.1,5.83-20.09c-1.67,0.34-3.61,0.18-5.14-0.01c-1.2-0.16-3.83-0.71-5.47-1.75
				C86.29,66.64,85.66,75.92,85.25,81.94"/>
		</defs>
		<clipPath id="SVGID_00000044167420064779067850000009834464890037081009_">
			<use xlink:href="#SVGID_00000174581154575320006260000000918067384206786492_"  style="overflow:visible;"/>
		</clipPath>
		
			<linearGradient id="SVGID_00000173161918425045235560000011202760841207137979_" gradientUnits="userSpaceOnUse" x1="-921.1509" y1="-494.8395" x2="-920.7614" y2="-494.8395" gradientTransform="matrix(0 -95.3667 -95.3667 0 -47141.1055 -87749.4688)">
			<stop  offset="0" style="stop-color:#E6E7E8"/>
			<stop  offset="0.4059" style="stop-color:#E6E7E8"/>
			<stop  offset="0.7694" style="stop-color:#BCBEC0"/>
			<stop  offset="1" style="stop-color:#BCBEC0"/>
		</linearGradient>
		
			<rect x="2.92" y="60.52" style="clip-path:url(#SVGID_00000044167420064779067850000009834464890037081009_);fill:url(#SVGID_00000173161918425045235560000011202760841207137979_);" width="94.39" height="37.14"/>
	</g>
	<path class="st4" d="M42.37,14.06l0,0.02c0,0.01,0,0.02,0,0.01C42.37,14.08,42.37,14.07,42.37,14.06c0-0.01,0-0.01,0-0.02
		L42.37,14.06z"/>
	<path class="st5" d="M57.57,68.9c-1.58,0.7-4.13,1.06-7.46,1.06c-3.89,0-6.71-0.5-8.15-1.43c-0.03-0.02-0.05-0.04-0.07-0.05l0-0.01
		c-0.03-0.23-0.05-0.44-0.04-0.68c0.01-2.65,1.29-4.67,2.81-6.47c0.57-0.68,1.76-1.4,2.86-1.94c-4.65,0.86-6.43,4.9-6.45,8.4
		c-0.01,0.36,0.04,0.67,0.07,0.98c0.05,0.13,0.2,0.28,0.37,0.4c2.11,1.36,6.1,1.56,8.59,1.56c2.49,0,6.49-0.2,8.59-1.56
		c0.17-0.12,0.32-0.27,0.37-0.4c0.02-0.15,0.03-0.29,0.05-0.44C58.62,68.59,58.09,68.78,57.57,68.9"/>
	<path class="st4" d="M57.85,14.08l0-0.02l0-0.02c0,0,0,0.01,0,0.01C57.85,14.06,57.85,14.08,57.85,14.08
		C57.85,14.09,57.85,14.09,57.85,14.08"/>
	<path class="st5" d="M43.31,13.6c0.29,0.07,0.58,0.14,0.87,0.2c-0.19,0.24-0.39,0.46-0.6,0.65c-0.44-0.09-0.86-0.21-1.21-0.43
		l-0.01-0.04c-0.68-3.75,1.37-7.73,4.96-9.15c0.21-0.09,0.43-0.16,0.65-0.23c-0.56,0.44-1.52,0.77-2.33,1.61
		c-1.87,1.93-2.95,4.52-2.57,7.3c0.05,0.02,0.1,0.03,0.15,0.05C43.24,13.57,43.27,13.59,43.31,13.6 M46.43,14.23
		c-0.05,0-0.1,0-0.15,0c0.13,0.22,0.26,0.44,0.43,0.63c0.58,0.05,1.16,0.09,1.75,0.12c0.22-0.18,0.41-0.4,0.58-0.63
		C48.17,14.3,47.3,14.25,46.43,14.23 M56.07,13.82c0.18,0.23,0.38,0.45,0.58,0.63c0.44-0.09,0.86-0.21,1.21-0.43l0.01-0.04
		c0.03-0.16,0.05-0.33,0.07-0.49C57.32,13.62,56.7,13.73,56.07,13.82 M51.44,14.25c0.19,0.27,0.4,0.51,0.62,0.71
		c0.49-0.03,0.98-0.06,1.47-0.1c0.2-0.24,0.37-0.51,0.52-0.8C53.18,14.16,52.31,14.22,51.44,14.25"/>
	<path class="st5" d="M97.53,60.16c-0.03,0.01-0.06,0.01-0.08,0.02c-0.42,0.09-0.93,0.14-1.54,0.15c-2.24,0.01-4.53-0.39-6.64-1.16
		c-0.63-0.24-1.29-0.51-1.73-0.88c0.26-2.1,1.09-3.72,2.36-4.8c0.63-0.54,1.57-0.95,2.37-1.32c-0.03-0.02-0.05-0.03-0.08-0.05
		c-3.19,0.32-5.17,3.07-5.47,6.41c0.02,0.05,0.07,0.13,0.16,0.22c0.56,0.53,1.34,0.85,2.1,1.14c2.2,0.8,4.59,1.22,6.92,1.21
		c0.58-0.01,1.16-0.05,1.7-0.17c0.36-0.08,0.71-0.18,0.96-0.39c0.08-0.07,0.07-0.08,0.08-0.15c0.05-0.16,0.08-0.33,0.11-0.49
		C98.36,60.03,97.94,60.12,97.53,60.16"/>
	<path class="st6" d="M54.85,95.36c-1.8,1.51-4.05,1.53-4.75,1.51c-0.68,0.02-2.97-0.08-3.82-1.43c-0.01-0.02-0.04-0.08-0.05-0.11h0
		c-0.01-0.02-0.01-0.04-0.02-0.06l-3.26-22.43l-0.12-0.86c-0.29-0.1-0.57-0.21-0.84-0.32c0.91,6.23,2.65,18.24,3.42,23.51l0.04,0.25
		c0.01,0.05,0.01,0.06,0.02,0.08l0.02,0.06c0.03,0.09,0.08,0.21,0.13,0.29c0.89,1.41,2.89,1.82,4.49,1.8c1.6,0.01,3.6-0.39,4.49-1.8
		c0.05-0.09,0.22,0.02,0.24-0.07L55,95.72C55.01,95.7,54.87,95.47,54.85,95.36"/>
	<path class="st7" d="M54.85,95.36c-1.8,1.51-4.05,1.53-4.75,1.51c-0.68,0.02-2.97-0.08-3.82-1.43c-0.01-0.02-0.04-0.08-0.05-0.11h0
		c-0.01-0.02-0.01-0.04-0.02-0.06l-3.26-22.43l-0.12-0.86c-0.29-0.1-0.57-0.21-0.84-0.32c0.91,6.23,2.65,18.24,3.42,23.51l0.04,0.25
		c0.01,0.05,0.01,0.06,0.02,0.08l0.02,0.06c0.03,0.09,0.08,0.21,0.13,0.29c0.89,1.41,2.89,1.82,4.49,1.8c1.6,0.01,3.6-0.39,4.49-1.8
		c0.05-0.09,0.22,0.02,0.24-0.07L55,95.72C55.01,95.7,54.87,95.47,54.85,95.36z"/>
	<path class="st6" d="M11.76,82.79c-0.53,0.05-1.05,0.02-1.48-0.12c-0.39-0.12-0.65-0.32-0.8-0.59C8.12,77.31,5.76,69.21,4,63.22
		c0.01,0,0.02,0,0.03,0c-0.03-0.1-0.05-0.2-0.07-0.3C4,63.17,3.94,62.75,3.93,62.7c-0.02-0.09-0.04-0.19-0.06-0.28
		c-0.32-0.03-0.64-0.07-0.95-0.14c1.76,5.99,4.37,14.93,5.83,20.09c0.85,1.72,3.88,1.33,5.28,0.59c0.35-0.19,0.62-0.39,0.82-0.67
		c0.07-0.11,0.11-0.22,0.11-0.35c0-0.05-0.01-0.11-0.01-0.17C13.96,82.37,12.85,82.82,11.76,82.79"/>
	<path class="st7" d="M11.76,82.79c-0.53,0.05-1.05,0.02-1.48-0.12c-0.39-0.12-0.65-0.32-0.8-0.59C8.12,77.31,5.76,69.21,4,63.22
		c0.01,0,0.02,0,0.03,0c-0.03-0.1-0.05-0.2-0.07-0.3C4,63.17,3.94,62.75,3.93,62.7c-0.02-0.09-0.04-0.19-0.06-0.28
		c-0.32-0.03-0.64-0.07-0.95-0.14c1.76,5.99,4.37,14.93,5.83,20.09c0.85,1.72,3.88,1.33,5.28,0.59c0.35-0.19,0.62-0.39,0.82-0.67
		c0.07-0.11,0.11-0.22,0.11-0.35c0-0.05-0.01-0.11-0.01-0.17C13.96,82.37,12.85,82.82,11.76,82.79z"/>
	<path class="st6" d="M92.16,62.27c-1.2-0.16-3.83-0.71-5.47-1.75c-0.4,6.11-1.03,15.4-1.44,21.42c0,0.13,0.05,0.24,0.11,0.35
		c0.2,0.28,0.47,0.48,0.83,0.67c1.41,0.75,4.44,1.13,5.28-0.59c0.05-0.18,0.1-0.36,0.16-0.55c-0.5,0.37-1.05,0.68-1.67,0.86
		c-0.06,0.02-0.12,0.02-0.18,0.03c-1.01,0.25-2.42-0.02-3.21-0.44c-0.26-0.14-0.43-0.27-0.52-0.39l0.14-2.01
		c0.37-5.44,0.86-12.74,1.22-18.1c2,0.89,4.36,1.23,4.68,1.28c1.19,0.15,2.66,0.28,4.09,0.18c0.3-0.04,0.61-0.08,0.91-0.12
		c0.08-0.28,0.16-0.55,0.24-0.82C95.63,62.62,93.69,62.46,92.16,62.27"/>
	<path class="st8" d="M92.16,62.27c-1.2-0.16-3.83-0.71-5.47-1.75c-0.4,6.11-1.03,15.4-1.44,21.42c0,0.13,0.05,0.24,0.11,0.35
		c0.2,0.28,0.47,0.48,0.83,0.67c1.41,0.75,4.44,1.13,5.28-0.59c0.05-0.18,0.1-0.36,0.16-0.55c-0.5,0.37-1.05,0.68-1.67,0.86
		c-0.06,0.02-0.12,0.02-0.18,0.03c-1.01,0.25-2.42-0.02-3.21-0.44c-0.26-0.14-0.43-0.27-0.52-0.39l0.14-2.01
		c0.37-5.44,0.86-12.74,1.22-18.1c2,0.89,4.36,1.23,4.68,1.28c1.19,0.15,2.66,0.28,4.09,0.18c0.3-0.04,0.61-0.08,0.91-0.12
		c0.08-0.28,0.16-0.55,0.24-0.82C95.63,62.62,93.69,62.46,92.16,62.27z"/>
	<path class="st6" d="M42.49,91.02C32.56,90.13,25,87.86,20,84.27c-1.15-0.85-2.04-1.75-2.66-2.66c-0.24-2.35-0.51-5.17-0.8-8.1
		c-0.36-3.66-1.15-11.8-1.15-11.8c-0.31-0.23-0.6-0.47-0.88-0.71c0.63,6.1,1.48,14.94,2.07,20.78c0,0.03,0,0.05,0,0.08
		c0.76,1.19,1.83,2.19,2.96,3.03c6.41,4.61,15.81,6.33,23.83,6.97c-0.03-0.25-0.06-0.5-0.09-0.77L42.49,91.02z"/>
	<path class="st7" d="M42.49,91.02C32.56,90.13,25,87.86,20,84.27c-1.15-0.85-2.04-1.75-2.66-2.66c-0.24-2.35-0.51-5.17-0.8-8.1
		c-0.36-3.66-1.15-11.8-1.15-11.8c-0.31-0.23-0.6-0.47-0.88-0.71c0.63,6.1,1.48,14.94,2.07,20.78c0,0.03,0,0.05,0,0.08
		c0.76,1.19,1.83,2.19,2.96,3.03c6.41,4.61,15.81,6.33,23.83,6.97c-0.03-0.25-0.06-0.5-0.09-0.77L42.49,91.02z"/>
	<path class="st5" d="M12.03,58.7c-0.34,0.18-0.71,0.33-1.07,0.47c-2.12,0.77-4.41,1.17-6.64,1.16c-0.62-0.01-1.12-0.06-1.53-0.15
		c-0.13-0.03-0.36-0.08-0.51-0.16c-0.16-0.66-0.21-1.43-0.14-2.24c0.13-1.54,0.61-2.7,1.28-3.77c0.36-0.58,0.71-0.94,1.04-1.25
		c-0.02,0-0.04,0-0.05-0.01c-1.81,0.91-2.86,2.74-3.04,4.97c-0.08,0.89-0.03,1.84,0.21,2.69c0.01,0.07,0.01,0.07,0.08,0.15
		c0.25,0.21,0.6,0.31,0.96,0.39c0.53,0.12,1.12,0.16,1.7,0.17c2.33,0.01,4.73-0.41,6.92-1.21c0.75-0.29,1.54-0.62,2.1-1.14
		c0.09-0.09,0.15-0.17,0.16-0.22c-0.02-0.25-0.06-0.5-0.1-0.75C12.97,58.14,12.53,58.46,12.03,58.7"/>
	<path class="st6" d="M82.21,82.82c-0.62,0.5-1.26,1.07-1.97,1.49c-0.65,0.51-1.34,0.95-2.17,1.32c-4.92,2.8-11.74,4.62-20.34,5.39
		l2.24-19.44c0,0,0,0,0,0c0.02-0.37,0.06-0.74,0.09-1.11c-0.24,0.24-0.51,0.47-0.83,0.67c-0.55,4.8-1.71,14.85-2.39,20.74
		c8.01-0.64,17.41-2.37,23.83-6.97c1.13-0.84,2.2-1.84,2.96-3.03c0-0.03,0-0.05,0-0.08c0.01-0.1,0.02-0.2,0.03-0.3
		C83.21,81.95,82.74,82.4,82.21,82.82"/>
	<path class="st7" d="M82.21,82.82c-0.62,0.5-1.26,1.07-1.97,1.49c-0.65,0.51-1.34,0.95-2.17,1.32c-4.92,2.8-11.74,4.62-20.34,5.39
		l2.24-19.44c0,0,0,0,0,0c0.02-0.37,0.06-0.74,0.09-1.11c-0.24,0.24-0.51,0.47-0.83,0.67c-0.55,4.8-1.71,14.85-2.39,20.74
		c8.01-0.64,17.41-2.37,23.83-6.97c1.13-0.84,2.2-1.84,2.96-3.03c0-0.03,0-0.05,0-0.08c0.01-0.1,0.02-0.2,0.03-0.3
		C83.21,81.95,82.74,82.4,82.21,82.82z"/>
	<path class="st9" d="M41.24,14.4c-8.81,3.22-16.85,10.22-20.63,27.38c-1.43,6.48,1.85,13.11,7.88,15.88
		c3.56,1.64,7.98,3.23,13.33,4.25c1.8-1.72,5.62-3.53,8.54-3.36c2.87,0.17,7.05,1.77,8.82,4.3c7.71-0.53,16.6-2.29,26.77-5.94
		c-0.08,0.78-0.16,2.8-0.16,2.8s-7.48,5.84-12.3,6.46c-4.83,0.62-13.32,1.56-13.32,1.56l-0.93-4.05l-3.04-3.58l-4.67-1.17
		l-3.82-0.08l-3.19,1.25l-2.49,2.18l-1.71,4.44c0,0-7.94,0.23-8.18,0.23c-0.23,0-13-3.74-13-3.74l-5.45-4.05l0.31-1.64l-0.93-2.73
		l-1.17-2.73l1.95-10.12l3.74-9.42l5.29-7.79l3.27-3.74l4.2-3.04l2.57-1.4l4.83-1.87L41.24,14.4z"/>
	<path d="M95.75,52c-0.62-0.94-0.97-2.33-1.1-3.36c-0.43,0.89-1.15,2.03-1.98,2.74c-0.61-0.01-1.22,0.05-1.8,0.17
		c-0.65,0.14-1.25,0.38-1.81,0.71c-0.01-0.93-0.06-1.86-0.14-2.78c-1.1-11.99-7.65-23.37-17.28-30.55c-2.9-2.11-6.14-3.83-9.66-4.64
		c-0.98-0.23-1.99-0.37-3-0.4c0.03-0.44,0.03-0.88,0-1.32c-0.19-3.86-3-7.31-6.63-8.32h0c-1.05-0.69-1.83-2.42-2.2-3.65
		c-0.2,1.13-0.78,2.76-1.88,3.54c-3.84,0.84-6.86,4.42-7.06,8.43c-0.03,0.44-0.03,0.88,0,1.32c-1.01,0.04-2.02,0.18-3,0.4
		c-3.51,0.81-6.76,2.53-9.66,4.64c-9.63,7.18-16.18,18.55-17.28,30.55c-0.08,0.92-0.13,1.85-0.14,2.78
		c-0.56-0.32-1.16-0.57-1.81-0.71c-0.6-0.13-1.22-0.18-1.85-0.17c-0.83-0.71-1.55-1.85-1.98-2.74c-0.13,1.04-0.49,2.45-1.12,3.39
		c-0.8,0.34-1.53,0.82-2.12,1.43c-1.44,1.5-2,3.63-1.97,5.66c0,0.43,0.1,1.26,0.16,1.5c0.08,0.52,0.46,0.88,0.85,1.1
		c0.17,0.09,0.35,0.17,0.54,0.24c0.44,1.73,1.13,4.38,1.16,4.52c0.89,3.48,3.33,12.83,4.27,16.43c0.2,0.52,0.54,0.98,0.95,1.32
		c1.78,1.45,4.7,1.23,6.62,0.19c0.36-0.19,0.71-0.46,1.01-0.78c0.43,0.56,0.9,1.08,1.4,1.56c0.14,0.14,0.57,0.51,0.72,0.65
		c0.29,0.24,0.71,0.59,1,0.8c3.39,2.52,7.35,4.17,11.36,5.4c3.59,1.09,7.3,1.82,11.03,2.26c0.74,0.08,1.54,0.16,2.32,0.22
		c0.04,0.35,0.11,1.07,0.16,1.28c0.46,1.91,2.35,2.97,4.09,3.4c0.72,0.18,1.46,0.26,2.18,0.27c0.73-0.01,1.46-0.1,2.18-0.27
		c1.73-0.43,3.62-1.49,4.09-3.4c0.05-0.21,0.12-0.94,0.16-1.28c0.78-0.07,1.58-0.15,2.32-0.22c3.72-0.43,7.44-1.17,11.03-2.26
		c4.01-1.23,7.97-2.88,11.36-5.4c0.3-0.21,0.72-0.57,1-0.8c0.15-0.14,0.58-0.52,0.72-0.65c0.5-0.48,0.97-1,1.4-1.56
		c0.3,0.32,0.65,0.58,1.01,0.78c1.92,1.04,4.84,1.25,6.62-0.19c0.41-0.34,0.75-0.8,0.95-1.32c0.94-3.6,3.38-12.94,4.27-16.43
		c0.03-0.14,0.71-2.79,1.16-4.52c0.18-0.07,0.37-0.15,0.54-0.24c0.39-0.23,0.77-0.59,0.85-1.1c0.07-0.24,0.17-1.07,0.16-1.5
		c0.04-2.03-0.53-4.17-1.97-5.66C97.34,52.83,96.58,52.35,95.75,52 M47.32,4.82c0.88-0.36,1.84-0.54,2.79-0.55
		c0.96,0.01,1.91,0.19,2.79,0.55c3.59,1.42,5.65,5.39,4.96,9.15l-0.01,0.04c-0.35,0.22-0.78,0.34-1.21,0.43
		c-0.83-0.76-1.52-2.01-1.91-2.98c-0.09,1.02-0.43,2.45-1.22,3.38c-0.49,0.04-0.98,0.08-1.47,0.1c-0.89-0.8-1.56-2.3-1.88-3.4
		c-0.19,1.07-0.73,2.59-1.72,3.41c-0.59-0.03-1.17-0.07-1.75-0.12c-0.79-0.93-1.14-2.36-1.22-3.38c-0.39,0.96-1.07,2.22-1.91,2.98
		c-0.44-0.09-0.86-0.21-1.21-0.43l-0.01-0.04C41.67,10.22,43.73,6.24,47.32,4.82 M57.86,14.04l0,0.02l0,0.02c0,0.01,0,0.02,0,0.01
		c0-0.01,0-0.02,0-0.03C57.86,14.05,57.86,14.05,57.86,14.04 M42.37,14.08C42.37,14.09,42.37,14.09,42.37,14.08l-0.01-0.03l0-0.02
		c0,0,0,0.01,0,0.01C42.37,14.07,42.37,14.08,42.37,14.08 M26.43,21.9c3.9-3.64,8.67-6.79,14.08-7.37c0.27-0.02,0.54-0.05,0.81-0.05
		c0.4,0.91,1.99,1.23,2.83,1.46c1.97,0.45,3.97,0.64,5.96,0.64s3.99-0.19,5.96-0.64c0.84-0.23,2.43-0.55,2.83-1.46
		c0.27,0.01,0.54,0.03,0.81,0.05c5.41,0.58,10.19,3.73,14.08,7.37c8.37,8.02,13.32,19.59,13,31.19c0,0.47-0.03,0.95-0.07,1.42
		c-0.78,1.15-1.28,2.51-1.45,3.85c-0.02,0.24,0.01,0.46,0.07,0.67c-0.33,0.32-0.69,0.63-1.06,0.91c-0.91-0.47-1.89-1.59-2.55-2.57
		c0.2,1.25,0.2,3.11-0.61,4.42c-0.41,0.19-0.82,0.38-1.23,0.55c-0.84,0.33-1.68,0.64-2.53,0.93c-1.09-0.89-2.04-2.33-2.61-3.45
		c0,1.36-0.3,3.32-1.29,4.59c-1.6,0.4-3.21,0.73-4.84,1c-1.19-1.06-2.04-2.9-2.49-4.38C65.85,62.71,65.17,64.87,64,66
		c-1.11,0.11-2.23,0.2-3.34,0.27c-0.39-2-1.36-3.92-2.76-5.34c-1.51-1.55-3.53-2.37-5.63-2.66c-1.01-1.18-1.76-2.93-2.16-4.28
		c-0.4,1.34-1.15,3.1-2.16,4.28c-2.1,0.29-4.11,1.11-5.63,2.66c-1.4,1.42-2.38,3.34-2.76,5.34c-1.12-0.07-2.23-0.16-3.34-0.27
		c-1.17-1.14-1.85-3.29-2.13-4.99c-0.45,1.48-1.3,3.32-2.49,4.38c-1.63-0.27-3.25-0.6-4.84-1c-0.99-1.27-1.29-3.23-1.29-4.59
		c-0.57,1.13-1.53,2.57-2.61,3.45c-0.85-0.28-1.7-0.59-2.53-0.93c-0.41-0.18-0.82-0.36-1.23-0.55c-0.81-1.31-0.81-3.17-0.61-4.42
		c-0.66,0.98-1.64,2.1-2.55,2.57c-0.37-0.28-0.73-0.58-1.06-0.91c0.07-0.21,0.1-0.44,0.07-0.67c-0.16-1.35-0.66-2.7-1.45-3.85
		c-0.04-0.47-0.07-0.94-0.07-1.42C13.11,41.49,18.06,29.91,26.43,21.9 M59.15,67.8c0.01,0.36-0.04,0.67-0.07,0.98
		c-0.05,0.13-0.2,0.28-0.37,0.4c-2.11,1.36-6.1,1.56-8.59,1.56s-6.49-0.2-8.59-1.56c-0.17-0.12-0.32-0.27-0.37-0.4
		c-0.03-0.31-0.08-0.62-0.07-0.98c0.02-3.62,2.15-7.12,5.72-8.19c0.24-0.08,0.48-0.15,0.73-0.21c0.69,0.29,1.69,0.49,2.59,0.49
		c0.9,0,1.9-0.19,2.59-0.49c0.24,0.06,0.49,0.13,0.73,0.21C57,60.68,59.13,64.18,59.15,67.8 M1.65,60.55
		c-0.08-0.07-0.07-0.08-0.08-0.15c-0.24-0.85-0.29-1.8-0.21-2.69c0.18-2.23,1.24-4.05,3.04-4.97c0.51,0.11,1.18,0.12,1.78,0.03
		c0.64-0.1,1.34-0.36,1.79-0.65c3.22,0.3,5.21,3.06,5.52,6.41c-0.02,0.05-0.07,0.13-0.16,0.22c-0.56,0.53-1.34,0.85-2.1,1.14
		c-2.2,0.8-4.59,1.22-6.92,1.21c-0.58-0.01-1.16-0.05-1.7-0.17C2.25,60.86,1.9,60.76,1.65,60.55 M14.86,82.29
		c-0.2,0.28-0.47,0.48-0.82,0.67c-1.41,0.75-4.43,1.13-5.28-0.59c-1.47-5.16-4.07-14.1-5.83-20.09c1.67,0.34,3.61,0.18,5.14-0.01
		c1.2-0.16,3.83-0.71,5.47-1.75c0.4,6.11,1.03,15.4,1.44,21.42C14.97,82.07,14.92,82.18,14.86,82.29 M19.54,84.9
		c-1.13-0.84-2.2-1.84-2.96-3.03c0-0.03,0-0.05,0-0.08c-0.59-5.84-1.44-14.68-2.07-20.78c5.47,4.72,16.21,7.14,24.96,8.28
		c0.19,0.75,0.75,1.36,1.51,1.84c0.55,4.8,1.71,14.85,2.39,20.74C35.36,91.23,25.96,89.51,19.54,84.9 M54.81,95.16l-0.04,0.25
		c0,0.05-0.01,0.06-0.02,0.08l-0.02,0.06c-0.03,0.09-0.08,0.21-0.13,0.29c-0.89,1.41-2.89,1.82-4.49,1.8
		c-1.6,0.01-3.6-0.39-4.49-1.8c-0.05-0.09-0.1-0.2-0.13-0.29l-0.02-0.06c-0.01-0.02-0.02-0.03-0.02-0.08l-0.04-0.25
		c-0.77-5.27-2.51-17.28-3.42-23.51c1.56,0.69,3.5,1.03,4.82,1.19c0.93,0.11,2.08,0.14,3.3,0.14s2.37-0.03,3.3-0.14
		c1.32-0.16,3.26-0.5,4.82-1.19C57.33,77.88,55.58,89.89,54.81,95.16 M83.64,81.79c0,0.03,0,0.05,0,0.08
		c-0.76,1.19-1.83,2.19-2.96,3.03c-6.41,4.61-15.81,6.33-23.83,6.97c0.68-5.89,1.83-15.94,2.39-20.74c0.76-0.48,1.33-1.09,1.51-1.84
		c8.75-1.14,19.5-3.56,24.96-8.28C85.09,67.11,84.23,75.95,83.64,81.79 M91.47,82.37c-0.85,1.72-3.88,1.33-5.28,0.59
		c-0.35-0.19-0.62-0.39-0.83-0.67c-0.07-0.11-0.11-0.22-0.11-0.35c0.41-6.02,1.04-15.3,1.44-21.42c1.64,1.04,4.27,1.59,5.47,1.75
		c1.53,0.19,3.47,0.35,5.14,0.01C95.55,68.27,92.94,77.21,91.47,82.37 M98.65,60.4c-0.01,0.07-0.01,0.07-0.08,0.15
		c-0.25,0.21-0.6,0.31-0.96,0.39c-0.53,0.12-1.12,0.16-1.7,0.17c-2.33,0.01-4.73-0.41-6.92-1.21c-0.75-0.29-1.54-0.62-2.1-1.14
		c-0.09-0.09-0.15-0.17-0.16-0.22c0.3-3.34,2.28-6.09,5.47-6.41c0.45,0.29,1.14,0.55,1.78,0.65c0.61,0.1,1.3,0.08,1.81-0.03
		c1.82,0.91,2.88,2.74,3.06,4.97C98.94,58.61,98.89,59.55,98.65,60.4"/>
	<path d="M75.08,71.58c-0.52-0.44-1.24-0.58-2.13-0.41c-1.9,0.35-2.75,2.39-2.75,4.25l-0.18,9.04l0.56-0.12
		c1.91-0.42,3.38-0.89,4.6-1.48l0.24-0.11l0.62-8.25l0-0.03C76.04,73.07,75.73,72.12,75.08,71.58 M74.56,82.16
		c-0.99,0.45-2.16,0.83-3.61,1.17l0.16-7.9c0-1.45,0.63-3.12,2.01-3.37c0.19-0.03,0.36-0.05,0.52-0.05c0.36,0,0.65,0.09,0.86,0.27
		c0.42,0.35,0.63,1.08,0.63,2.17L74.56,82.16z"/>
	<path d="M27.27,71.17c-0.89-0.16-1.6-0.02-2.13,0.41c-0.65,0.54-0.96,1.48-0.96,2.88l0.62,8.28l0.24,0.11
		c1.23,0.59,2.69,1.06,4.6,1.48l0.56,0.12l-0.18-9.03C30.02,73.56,29.17,71.52,27.27,71.17 M25.66,82.16l-0.58-7.71
		c0-1.09,0.22-1.82,0.63-2.17c0.31-0.26,0.77-0.33,1.39-0.22c1.38,0.25,2.01,1.92,2.01,3.38l0.15,7.89
		C27.82,82.98,26.65,82.61,25.66,82.16"/>
</g>
</svg>
