<?xml version="1.0" encoding="utf-8"?>
<!-- Generator: Adobe Illustrator 27.3.1, SVG Export Plug-In . SVG Version: 6.00 Build 0)  -->
<svg version="1.1" id="Layer_1" xmlns="http://www.w3.org/2000/svg" xmlns:xlink="http://www.w3.org/1999/xlink" x="0px" y="0px"
	 viewBox="0 0 100 100" style="enable-background:new 0 0 100 100;" xml:space="preserve">
<style type="text/css">
	.st0{fill:#FFFFFF;}
	.st1{fill:#2B6583;}
</style>
<path class="st0" d="M50,0C22.39,0,0,22.39,0,50c0,27.61,22.39,50,50,50s50-22.39,50-50C100,22.39,77.61,0,50,0z M50,93
	C26.25,93,7,73.75,7,50S26.25,7,50,7s43,19.25,43,43S73.75,93,50,93z"/>
<circle class="st1" cx="-118.53" cy="50" r="43"/>
<g>
	<path class="st0" d="M28.68,27.12v0.38h46.65v-3.9c0-2.39-1.94-4.33-4.33-4.33H29c-2.39,0-4.33,1.94-4.33,4.33v2.3h2.79
		C28.13,25.9,28.68,26.44,28.68,27.12z"/>
	<path class="st0" d="M28.68,71.63v0.38c0,0.67-0.54,1.22-1.22,1.22h-2.79v3.17c0,2.39,1.94,4.33,4.33,4.33h42
		c2.39,0,4.33-1.94,4.33-4.33v-4.77H28.68z"/>
	<path class="st0" d="M75.33,66.7V32.43H28.68v0.38c0,0.67-0.54,1.22-1.22,1.22h-2.79V65.1h2.79c0.67,0,1.22,0.54,1.22,1.22v0.38
		H75.33z"/>
</g>
</svg>
